<mxfile host="app.diagrams.net" modified="2022-10-13T17:30:48.038Z" agent="5.0 (Windows NT 10.0; Win64; x64) AppleWebKit/537.36 (KHTML, like Gecko) Chrome/106.0.0.0 Safari/537.36" etag="qbR2tezEVEJDDnaQXtOb" version="20.4.0" type="github">
  <diagram id="6a731a19-8d31-9384-78a2-239565b7b9f0" name="Page-1">
    <mxGraphModel dx="981" dy="548" grid="1" gridSize="10" guides="1" tooltips="1" connect="1" arrows="1" fold="1" page="1" pageScale="1" pageWidth="3300" pageHeight="2339" background="none" math="0" shadow="0">
      <root>
        <mxCell id="0" />
        <mxCell id="1" parent="0" />
        <mxCell id="54" value="" style="edgeStyle=elbowEdgeStyle;elbow=horizontal;exitX=0;exitY=0.5;exitPerimeter=0;entryX=0.095;entryY=0.5;entryPerimeter=0;fontStyle=1;strokeColor=#003366;strokeWidth=1;html=1;" parent="1" source="37" edge="1">
          <mxGeometry width="100" height="100" as="geometry">
            <mxPoint y="100" as="sourcePoint" />
            <mxPoint x="255.60500000000025" y="290" as="targetPoint" />
            <Array as="points">
              <mxPoint x="120" y="970" />
            </Array>
          </mxGeometry>
        </mxCell>
        <mxCell id="BWxw6Ei6b2Xr7UirsScX-114" style="edgeStyle=orthogonalEdgeStyle;rounded=0;orthogonalLoop=1;jettySize=auto;html=1;exitX=1;exitY=0.5;exitDx=0;exitDy=0;entryX=0.054;entryY=0.595;entryDx=0;entryDy=0;entryPerimeter=0;" edge="1" parent="1" source="BWxw6Ei6b2Xr7UirsScX-106" target="BWxw6Ei6b2Xr7UirsScX-109">
          <mxGeometry relative="1" as="geometry" />
        </mxCell>
        <mxCell id="BWxw6Ei6b2Xr7UirsScX-106" value="begin&amp;nbsp;" style="ellipse;whiteSpace=wrap;html=1;" vertex="1" parent="1">
          <mxGeometry x="470" y="62.5" width="120" height="70" as="geometry" />
        </mxCell>
        <mxCell id="BWxw6Ei6b2Xr7UirsScX-115" style="edgeStyle=orthogonalEdgeStyle;rounded=0;orthogonalLoop=1;jettySize=auto;html=1;exitX=1;exitY=0.5;exitDx=0;exitDy=0;entryX=0;entryY=0.5;entryDx=0;entryDy=0;" edge="1" parent="1" source="BWxw6Ei6b2Xr7UirsScX-109" target="BWxw6Ei6b2Xr7UirsScX-111">
          <mxGeometry relative="1" as="geometry" />
        </mxCell>
        <mxCell id="BWxw6Ei6b2Xr7UirsScX-109" value="nhập tên và tài khoản&amp;nbsp;" style="shape=parallelogram;perimeter=parallelogramPerimeter;whiteSpace=wrap;html=1;fixedSize=1;" vertex="1" parent="1">
          <mxGeometry x="730" y="62.5" width="180" height="60" as="geometry" />
        </mxCell>
        <mxCell id="BWxw6Ei6b2Xr7UirsScX-140" style="edgeStyle=orthogonalEdgeStyle;rounded=0;orthogonalLoop=1;jettySize=auto;html=1;exitX=0.5;exitY=1;exitDx=0;exitDy=0;entryX=0.5;entryY=0;entryDx=0;entryDy=0;" edge="1" parent="1" source="BWxw6Ei6b2Xr7UirsScX-111" target="BWxw6Ei6b2Xr7UirsScX-112">
          <mxGeometry relative="1" as="geometry">
            <mxPoint x="1130.04" y="209.99" as="targetPoint" />
            <Array as="points">
              <mxPoint x="1130" y="210" />
            </Array>
          </mxGeometry>
        </mxCell>
        <mxCell id="BWxw6Ei6b2Xr7UirsScX-111" value="kiểm tra đăng nhập" style="rounded=0;whiteSpace=wrap;html=1;" vertex="1" parent="1">
          <mxGeometry x="1070" y="62.5" width="120" height="60" as="geometry" />
        </mxCell>
        <mxCell id="BWxw6Ei6b2Xr7UirsScX-118" style="edgeStyle=orthogonalEdgeStyle;rounded=0;orthogonalLoop=1;jettySize=auto;html=1;entryX=0.406;entryY=0.997;entryDx=0;entryDy=0;entryPerimeter=0;" edge="1" parent="1" source="BWxw6Ei6b2Xr7UirsScX-112" target="BWxw6Ei6b2Xr7UirsScX-109">
          <mxGeometry relative="1" as="geometry">
            <Array as="points">
              <mxPoint x="803" y="260" />
            </Array>
          </mxGeometry>
        </mxCell>
        <mxCell id="BWxw6Ei6b2Xr7UirsScX-142" style="edgeStyle=orthogonalEdgeStyle;rounded=0;orthogonalLoop=1;jettySize=auto;html=1;exitX=0.5;exitY=1;exitDx=0;exitDy=0;entryX=0.561;entryY=0.003;entryDx=0;entryDy=0;entryPerimeter=0;" edge="1" parent="1" source="BWxw6Ei6b2Xr7UirsScX-112" target="BWxw6Ei6b2Xr7UirsScX-113">
          <mxGeometry relative="1" as="geometry" />
        </mxCell>
        <mxCell id="BWxw6Ei6b2Xr7UirsScX-112" value="" style="rhombus;whiteSpace=wrap;html=1;" vertex="1" parent="1">
          <mxGeometry x="1100" y="210" width="80" height="80" as="geometry" />
        </mxCell>
        <mxCell id="BWxw6Ei6b2Xr7UirsScX-125" style="edgeStyle=orthogonalEdgeStyle;rounded=0;orthogonalLoop=1;jettySize=auto;html=1;exitX=0.5;exitY=1;exitDx=0;exitDy=0;entryX=0.667;entryY=0.005;entryDx=0;entryDy=0;entryPerimeter=0;" edge="1" parent="1" source="BWxw6Ei6b2Xr7UirsScX-113" target="BWxw6Ei6b2Xr7UirsScX-122">
          <mxGeometry relative="1" as="geometry" />
        </mxCell>
        <mxCell id="BWxw6Ei6b2Xr7UirsScX-113" value="chọn chức năng khảo sát&amp;nbsp;&lt;br&gt;và nhâp kế quả khảo sát&amp;nbsp;" style="shape=parallelogram;perimeter=parallelogramPerimeter;whiteSpace=wrap;html=1;fixedSize=1;" vertex="1" parent="1">
          <mxGeometry x="1045" y="380" width="170" height="100" as="geometry" />
        </mxCell>
        <mxCell id="BWxw6Ei6b2Xr7UirsScX-126" style="edgeStyle=orthogonalEdgeStyle;rounded=0;orthogonalLoop=1;jettySize=auto;html=1;exitX=0.5;exitY=1;exitDx=0;exitDy=0;" edge="1" parent="1" source="BWxw6Ei6b2Xr7UirsScX-122" target="BWxw6Ei6b2Xr7UirsScX-124">
          <mxGeometry relative="1" as="geometry" />
        </mxCell>
        <mxCell id="BWxw6Ei6b2Xr7UirsScX-122" value="kiểm tra dữ liệu&amp;nbsp;" style="rounded=0;whiteSpace=wrap;html=1;" vertex="1" parent="1">
          <mxGeometry x="1050" y="540" width="120" height="60" as="geometry" />
        </mxCell>
        <mxCell id="BWxw6Ei6b2Xr7UirsScX-127" style="edgeStyle=orthogonalEdgeStyle;rounded=0;orthogonalLoop=1;jettySize=auto;html=1;exitX=0;exitY=0.5;exitDx=0;exitDy=0;" edge="1" parent="1" source="BWxw6Ei6b2Xr7UirsScX-124" target="BWxw6Ei6b2Xr7UirsScX-113">
          <mxGeometry relative="1" as="geometry">
            <Array as="points">
              <mxPoint x="930" y="720" />
              <mxPoint x="930" y="430" />
            </Array>
          </mxGeometry>
        </mxCell>
        <mxCell id="BWxw6Ei6b2Xr7UirsScX-131" style="edgeStyle=orthogonalEdgeStyle;rounded=0;orthogonalLoop=1;jettySize=auto;html=1;exitX=0.5;exitY=1;exitDx=0;exitDy=0;" edge="1" parent="1" source="BWxw6Ei6b2Xr7UirsScX-124" target="BWxw6Ei6b2Xr7UirsScX-130">
          <mxGeometry relative="1" as="geometry" />
        </mxCell>
        <mxCell id="BWxw6Ei6b2Xr7UirsScX-124" value="" style="rhombus;whiteSpace=wrap;html=1;" vertex="1" parent="1">
          <mxGeometry x="1070" y="680" width="80" height="80" as="geometry" />
        </mxCell>
        <mxCell id="BWxw6Ei6b2Xr7UirsScX-128" value="database" style="shape=cylinder3;whiteSpace=wrap;html=1;boundedLbl=1;backgroundOutline=1;size=15;" vertex="1" parent="1">
          <mxGeometry x="1062.5" y="980" width="95" height="100" as="geometry" />
        </mxCell>
        <mxCell id="BWxw6Ei6b2Xr7UirsScX-132" style="edgeStyle=orthogonalEdgeStyle;rounded=0;orthogonalLoop=1;jettySize=auto;html=1;entryX=0.5;entryY=0;entryDx=0;entryDy=0;entryPerimeter=0;" edge="1" parent="1" source="BWxw6Ei6b2Xr7UirsScX-130" target="BWxw6Ei6b2Xr7UirsScX-128">
          <mxGeometry relative="1" as="geometry" />
        </mxCell>
        <mxCell id="BWxw6Ei6b2Xr7UirsScX-130" value="" style="shape=document;whiteSpace=wrap;html=1;boundedLbl=1;" vertex="1" parent="1">
          <mxGeometry x="1050" y="820" width="120" height="80" as="geometry" />
        </mxCell>
        <mxCell id="BWxw6Ei6b2Xr7UirsScX-137" style="edgeStyle=orthogonalEdgeStyle;rounded=0;orthogonalLoop=1;jettySize=auto;html=1;exitX=1;exitY=0.5;exitDx=0;exitDy=0;entryX=0.035;entryY=0.575;entryDx=0;entryDy=0;entryPerimeter=0;" edge="1" parent="1" source="BWxw6Ei6b2Xr7UirsScX-133" target="BWxw6Ei6b2Xr7UirsScX-134">
          <mxGeometry relative="1" as="geometry" />
        </mxCell>
        <mxCell id="BWxw6Ei6b2Xr7UirsScX-133" value="" style="ellipse;whiteSpace=wrap;html=1;" vertex="1" parent="1">
          <mxGeometry x="400" y="1280" width="120" height="80" as="geometry" />
        </mxCell>
        <mxCell id="BWxw6Ei6b2Xr7UirsScX-138" style="edgeStyle=orthogonalEdgeStyle;rounded=0;orthogonalLoop=1;jettySize=auto;html=1;exitX=1;exitY=0.5;exitDx=0;exitDy=0;entryX=0.014;entryY=0.397;entryDx=0;entryDy=0;entryPerimeter=0;" edge="1" parent="1" source="BWxw6Ei6b2Xr7UirsScX-134" target="BWxw6Ei6b2Xr7UirsScX-135">
          <mxGeometry relative="1" as="geometry" />
        </mxCell>
        <mxCell id="BWxw6Ei6b2Xr7UirsScX-134" value="nhập thông tin tài khoản&amp;nbsp;" style="shape=parallelogram;perimeter=parallelogramPerimeter;whiteSpace=wrap;html=1;fixedSize=1;" vertex="1" parent="1">
          <mxGeometry x="630" y="1275" width="160" height="80" as="geometry" />
        </mxCell>
        <mxCell id="BWxw6Ei6b2Xr7UirsScX-180" style="edgeStyle=orthogonalEdgeStyle;rounded=0;orthogonalLoop=1;jettySize=auto;html=1;entryX=0.5;entryY=1;entryDx=0;entryDy=0;" edge="1" parent="1" source="BWxw6Ei6b2Xr7UirsScX-135" target="BWxw6Ei6b2Xr7UirsScX-145">
          <mxGeometry relative="1" as="geometry" />
        </mxCell>
        <mxCell id="BWxw6Ei6b2Xr7UirsScX-135" value="kiểm tra thông tin&amp;nbsp;" style="rounded=0;whiteSpace=wrap;html=1;" vertex="1" parent="1">
          <mxGeometry x="900" y="1285" width="130" height="75" as="geometry" />
        </mxCell>
        <mxCell id="BWxw6Ei6b2Xr7UirsScX-181" style="edgeStyle=orthogonalEdgeStyle;rounded=0;orthogonalLoop=1;jettySize=auto;html=1;entryX=0.565;entryY=0.014;entryDx=0;entryDy=0;entryPerimeter=0;" edge="1" parent="1" source="BWxw6Ei6b2Xr7UirsScX-145" target="BWxw6Ei6b2Xr7UirsScX-134">
          <mxGeometry relative="1" as="geometry" />
        </mxCell>
        <mxCell id="BWxw6Ei6b2Xr7UirsScX-145" value="" style="rhombus;whiteSpace=wrap;html=1;" vertex="1" parent="1">
          <mxGeometry x="925" y="1140" width="80" height="80" as="geometry" />
        </mxCell>
      </root>
    </mxGraphModel>
  </diagram>
</mxfile>
